<svg width="820" height="198" viewBox="0 0 820 198" fill="none" xmlns="http://www.w3.org/2000/svg">
<g clip-path="url(#clip0_23_306)">
<path d="M582.706 179.66C572.289 179.66 563.062 177.375 555.025 172.806C547.137 168.237 541.036 161.84 536.72 153.616C532.404 145.391 530.246 135.796 530.246 124.83C530.246 113.712 532.404 104.04 536.72 95.8157C541.184 87.5912 547.435 81.2706 555.472 76.8537C563.508 72.2846 572.958 70 583.823 70C594.687 70 603.914 72.1323 611.504 76.3968C619.094 80.6614 624.898 86.8297 628.917 94.9019C633.084 102.822 635.167 112.417 635.167 123.688C635.167 124.906 635.093 126.201 634.944 127.571C634.944 128.942 634.87 129.932 634.721 130.541H544.533V113.635H614.183L606.816 124.144C607.263 123.231 607.709 122.012 608.156 120.489C608.751 118.814 609.048 117.443 609.048 116.377C609.048 110.742 607.932 105.868 605.7 101.756C603.616 97.6434 600.64 94.445 596.77 92.1604C593.05 89.8758 588.659 88.7335 583.599 88.7335C577.498 88.7335 572.289 90.1043 567.973 92.8458C563.657 95.5873 560.383 99.5472 558.15 104.726C555.918 109.904 554.727 116.301 554.579 123.916C554.579 131.531 555.695 138.004 557.927 143.335C560.16 148.513 563.434 152.473 567.75 155.215C572.214 157.956 577.572 159.327 583.823 159.327C590.371 159.327 596.101 157.956 601.012 155.215C605.923 152.473 610.016 148.285 613.29 142.65L634.051 151.331C628.693 160.774 621.773 167.856 613.29 172.577C604.807 177.299 594.612 179.66 582.706 179.66Z" fill="#0D1117"/>
<path d="M662.868 142.878C666.142 146.533 669.416 149.732 672.69 152.473C676.113 155.062 679.536 157.042 682.959 158.413C686.382 159.632 689.805 160.241 693.228 160.241C697.544 160.241 700.893 159.251 703.274 157.271C705.804 155.291 707.069 152.549 707.069 149.046C707.069 146 706.101 143.411 704.167 141.279C702.232 138.994 699.553 137.09 696.13 135.567C692.707 133.892 688.689 132.217 684.075 130.541C679.462 128.714 674.848 126.581 670.235 124.144C665.77 121.555 662.049 118.205 659.073 114.092C656.245 109.98 654.831 104.802 654.831 98.5572C654.831 92.1604 656.394 86.8297 659.519 82.5652C662.793 78.3006 667.109 75.1784 672.467 73.1984C677.974 71.0661 683.852 70 690.103 70C695.758 70 701.041 70.8377 705.953 72.513C711.013 74.1884 715.552 76.3968 719.57 79.1383C723.588 81.8798 727.011 85.0021 729.839 88.5051L716.445 103.126C713.022 99.0141 708.929 95.6634 704.167 93.0742C699.404 90.485 694.493 89.1904 689.433 89.1904C686.01 89.1904 683.182 89.952 680.95 91.475C678.718 92.9981 677.602 95.2065 677.602 98.1003C677.602 100.537 678.569 102.746 680.504 104.726C682.587 106.553 685.266 108.229 688.54 109.752C691.963 111.275 695.758 112.874 699.925 114.549C705.581 116.834 710.789 119.347 715.552 122.088C720.314 124.83 724.109 128.181 726.937 132.14C729.913 136.1 731.402 141.279 731.402 147.676C731.402 157.575 728.053 165.571 721.356 171.664C714.808 177.604 705.878 180.573 694.568 180.573C687.573 180.573 681.099 179.507 675.146 177.375C669.342 175.091 664.207 172.197 659.743 168.694C655.427 165.038 651.78 161.231 648.804 157.271L662.868 142.878Z" fill="#0D1117"/>
<path d="M367 72.2846H393.119L417.228 134.882L438.368 73.1984H452.982L475.717 135.11L499.826 72.2846H525.945L481.188 177.375H469.572L445.803 115.864L423.274 177.375H411.757L367 72.2846Z" fill="#0D1117"/>
<path d="M752.794 72H776.904V156.519H820.014V177.375H752.794V72Z" fill="#0D1117"/>
<g clip-path="url(#clip1_23_306)">
<path d="M193.558 108.853C189.148 108.853 186.392 113.645 188.597 117.479L233.139 194.925C235.349 198.767 240.876 198.757 243.072 194.908L287.254 117.462C289.442 113.628 286.684 108.853 282.283 108.853H268.627C264.623 108.853 261.897 112.9 262.384 116.889C262.906 121.161 262.426 125.207 260.76 128.818C257.069 136.814 248.557 140.672 237.884 140.672C227.212 140.672 218.699 136.814 215.009 128.818C213.343 125.207 212.863 121.161 213.385 116.889C213.872 112.9 211.145 108.853 207.142 108.853H193.558Z" fill="#0391E3"/>
<path d="M224.186 112.131C224.959 110.082 226.995 108.853 229.177 108.853H246.591C248.774 108.853 250.81 110.082 251.583 112.131C253.704 117.756 253.568 122.05 252.267 124.868C250.7 128.263 246.565 131.276 237.884 131.276C229.204 131.276 225.069 128.263 223.502 124.868C222.201 122.05 222.065 117.756 224.186 112.131Z" fill="#0391E3"/>
<path d="M206.656 59.4244C205.565 61.3215 205.608 63.7054 206.988 65.4017C210.782 70.0635 214.557 72.0938 217.64 72.3723C221.352 72.7075 226.019 70.6188 230.359 63.0725C234.699 55.5262 234.167 50.4242 232.022 47.3647C230.24 44.8234 226.601 42.5569 220.682 41.5895C218.528 41.2375 216.45 42.3927 215.359 44.2899L206.656 59.4244Z" fill="#08BFF2"/>
<path d="M243.069 13.4139C240.872 9.5649 235.346 9.55545 233.136 13.397L226.386 25.1342C224.384 28.6145 226.512 33.0087 230.197 34.5794C234.144 36.2619 237.395 38.7023 239.676 41.9564C244.729 49.1627 243.801 58.4922 238.465 67.7706C233.129 77.049 225.544 82.5203 216.801 81.7307C212.853 81.3741 209.122 79.768 205.697 77.1778C202.5 74.7597 197.645 75.1066 195.643 78.5868L188.601 90.8293C186.396 94.6633 189.153 99.4559 193.563 99.4559H222.799C224.464 99.4559 226.004 100.344 226.842 101.789C227.681 103.234 227.691 105.017 226.87 106.471C222.093 114.928 221.795 121.169 223.502 124.868C225.069 128.262 229.204 131.275 237.884 131.275C246.564 131.275 250.7 128.262 252.267 124.868C253.974 121.169 253.675 114.928 248.899 106.471C248.077 105.017 248.088 103.234 248.926 101.789C249.765 100.344 251.305 99.4559 252.97 99.4559H282.281C286.683 99.4559 289.44 94.6804 287.253 90.8465L243.069 13.4139Z" fill="#08BFF2"/>
<path d="M117.885 194.985C115.68 198.819 110.168 198.819 107.963 194.985L0.776136 8.62654C-1.42902 4.79258 1.32726 0 5.73736 0H220.111C224.521 0 227.277 4.79245 225.072 8.62641L210.452 34.0474C209.619 35.4954 209.615 37.2785 210.443 38.7297C211.27 40.1808 212.803 41.0814 214.468 41.0945C224.152 41.1703 229.685 44.031 232.022 47.3646C234.168 50.4241 234.699 55.526 230.359 63.0723C226.019 70.6187 221.352 72.7074 217.64 72.3722C213.595 72.0069 208.361 68.6267 203.453 60.2461C202.61 58.8047 201.066 57.9222 199.401 57.9287C197.735 57.9352 196.199 58.8297 195.366 60.2776L117.885 194.985Z" fill="url(#paint0_linear_23_306)"/>
<path d="M0.776136 8.62654L107.963 194.985C110.168 198.819 115.68 198.819 117.885 194.985L127.336 178.554L24.6392 0H5.73736C1.32726 0 -1.42902 4.79258 0.776136 8.62654Z" fill="#FF7700"/>
<path d="M287.465 45.0253C283.055 45.025 280.299 40.2326 282.504 36.3988L295.791 13.2982C297.994 9.46709 303.502 9.46373 305.71 13.2922L319.035 36.3947C321.246 40.2288 318.49 45.0276 314.076 45.0272L287.465 45.0253Z" fill="#0391E3"/>
<path d="M305.334 86.1935C303.1 90.0068 297.592 89.9651 295.415 86.1182L282.341 63.0134C280.171 59.1794 282.93 54.4216 287.322 54.4219L313.934 54.4238C318.365 54.4241 321.118 59.257 318.872 63.0906L305.334 86.1935Z" fill="#0391E3"/>
</g>
</g>
<defs>
<linearGradient id="paint0_linear_23_306" x1="169.024" y1="0.307819" x2="118.242" y2="183.547" gradientUnits="userSpaceOnUse">
<stop stop-color="#FF5343"/>
<stop offset="1" stop-color="#FCB000"/>
</linearGradient>
<clipPath id="clip0_23_306">
<rect width="820" height="198" fill="white"/>
</clipPath>
<clipPath id="clip1_23_306">
<rect width="320" height="198" fill="white"/>
</clipPath>
</defs>
</svg>
