<svg width="391" height="241" viewBox="0 0 391 241" fill="none" xmlns="http://www.w3.org/2000/svg">
<g clip-path="url(#clip0_9_57)">
<path d="M236.504 132.492C231.115 132.492 227.748 138.326 230.442 142.992L284.867 237.257C287.567 241.933 294.32 241.921 297.003 237.236L350.989 142.971C353.662 138.304 350.292 132.492 344.915 132.492H328.228C323.337 132.492 320.005 137.418 320.6 142.274C321.238 147.474 320.652 152.399 318.616 156.794C314.106 166.526 303.705 171.222 290.665 171.222C277.624 171.222 267.223 166.526 262.714 156.794C260.678 152.399 260.092 147.474 260.729 142.274C261.325 137.418 257.993 132.492 253.101 132.492H236.504Z" fill="#0095FF"/>
<path d="M273.927 136.483C274.872 133.989 277.359 132.492 280.026 132.492H301.304C303.971 132.492 306.458 133.989 307.402 136.483C309.994 143.329 309.828 148.556 308.239 151.986C306.324 156.118 301.271 159.785 290.665 159.785C280.059 159.785 275.006 156.118 273.091 151.986C271.502 148.556 271.335 143.329 273.927 136.483Z" fill="#0095FF"/>
<path d="M252.508 72.3299C251.175 74.6389 251.227 77.5406 252.914 79.6053C257.549 85.2795 262.161 87.7508 265.929 88.0897C270.464 88.4977 276.167 85.9554 281.47 76.7702C286.773 67.585 286.123 61.3751 283.502 57.6512C281.325 54.558 276.878 51.7993 269.646 50.6218C267.014 50.1933 264.475 51.5994 263.142 53.9086L252.508 72.3299Z" fill="#05E3FC"/>
<path d="M296.999 16.3273C294.316 11.6423 287.563 11.6308 284.863 16.3066L276.615 30.5928C274.17 34.829 276.77 40.1774 281.272 42.0893C286.095 44.1372 290.067 47.1075 292.855 51.0683C299.028 59.8396 297.895 71.1952 291.375 82.4886C284.854 93.7821 275.587 100.442 264.904 99.4805C260.08 99.0465 255.521 97.0916 251.336 93.9389C247.429 90.9956 241.497 91.4178 239.051 95.6538L230.447 110.555C227.753 115.222 231.121 121.055 236.509 121.055H272.232C274.267 121.055 276.149 122.137 277.173 123.895C278.197 125.653 278.21 127.824 277.206 129.594C271.37 139.887 271.005 147.483 273.091 151.985C275.006 156.117 280.059 159.785 290.665 159.785C301.271 159.785 306.324 156.117 308.239 151.985C310.324 147.483 309.959 139.887 304.123 129.594C303.12 127.824 303.132 125.653 304.157 123.895C305.181 122.137 307.063 121.055 309.098 121.055H344.913C350.291 121.055 353.66 115.243 350.987 110.576L296.999 16.3273Z" fill="#05E3FC"/>
<path d="M144.041 237.33C141.346 241.997 134.611 241.997 131.917 237.33L0.948341 10.5C-1.74608 5.83339 1.62174 0 7.01033 0H268.948C274.336 0 277.704 5.83324 275.01 10.4998L257.146 41.4416C256.128 43.2039 256.124 45.3743 257.134 47.1406C258.145 48.907 260.018 50.0031 262.053 50.019C273.885 50.1113 280.646 53.5933 283.502 57.6509C286.123 61.3748 286.773 67.5847 281.47 76.7699C276.167 85.955 270.464 88.4974 265.929 88.0893C260.987 87.6447 254.591 83.5305 248.595 73.3298C247.564 71.5754 245.678 70.5013 243.643 70.5092C241.608 70.5171 239.73 71.6058 238.713 73.3681L144.041 237.33Z" fill="url(#paint0_linear_9_57)"/>
<path d="M0.948341 10.5L131.917 237.33C134.611 241.997 141.346 241.997 144.041 237.33L238.713 73.3681C239.73 71.6058 241.608 70.5171 243.643 70.5092C245.678 70.5013 247.564 71.5754 248.595 73.3298C254.591 83.5305 260.987 87.6447 265.929 88.0893C270.464 88.4974 276.167 85.955 281.47 76.7699C286.773 67.5847 286.123 61.3748 283.502 57.6509C280.646 53.5933 273.885 50.1113 262.053 50.019C260.018 50.0031 258.145 48.907 257.134 47.1406C256.124 45.3743 256.128 43.2039 257.146 41.4416L275.01 10.4998C277.704 5.83324 274.336 0 268.948 0L176.735 0.000113293C171.843 0.000113293 168.512 4.92618 169.107 9.78133C169.745 14.9817 169.158 19.9068 167.122 24.3015C162.613 34.0339 152.212 38.73 139.171 38.73C126.131 38.73 115.73 34.0339 111.221 24.3016C109.184 19.9068 108.598 14.9817 109.236 9.78132C109.831 4.92617 106.499 0.000113293 101.608 0.000113293L7.01033 0C1.62174 0 -1.74608 5.83339 0.948341 10.5Z" fill="url(#paint1_linear_9_57)"/>
<path d="M0.948341 10.5L131.917 237.33C134.611 241.997 141.346 241.997 144.041 237.33L155.589 217.33L30.1061 0H7.01033C1.62174 0 -1.74608 5.83339 0.948341 10.5Z" fill="#FF7700"/>
<path d="M351.246 54.8036C345.858 54.8033 342.491 48.9701 345.185 44.3037L361.419 16.1863C364.112 11.5232 370.841 11.5191 373.539 16.179L389.82 44.2987C392.523 48.9655 389.155 54.8064 383.762 54.806L351.246 54.8036Z" fill="#04A3FF"/>
<path d="M373.081 104.912C370.35 109.553 363.621 109.502 360.961 104.82L344.985 76.6976C342.334 72.031 345.705 66.2398 351.072 66.2402L383.589 66.2426C389.002 66.243 392.366 72.1254 389.622 76.7915L373.081 104.912Z" fill="#04A3FF"/>
</g>
<defs>
<linearGradient id="paint0_linear_9_57" x1="206.526" y1="0.374668" x2="144.921" y2="223.53" gradientUnits="userSpaceOnUse">
<stop stop-color="#FF5242"/>
<stop offset="1" stop-color="#FFDD00"/>
</linearGradient>
<linearGradient id="paint1_linear_9_57" x1="206.526" y1="0.374668" x2="144.921" y2="223.53" gradientUnits="userSpaceOnUse">
<stop stop-color="#FF5242"/>
<stop offset="1" stop-color="#FFDD00"/>
</linearGradient>
<clipPath id="clip0_9_57">
<rect width="391" height="241" fill="white"/>
</clipPath>
</defs>
</svg>
