<svg width="454" height="422" viewBox="0 0 454 422" fill="none" xmlns="http://www.w3.org/2000/svg">
<g clip-path="url(#clip0_23_171)">
<path d="M216.706 421.14C206.289 421.14 197.062 418.856 189.025 414.286C181.137 409.717 175.036 403.32 170.72 395.096C166.404 386.871 164.246 377.276 164.246 366.31C164.246 355.192 166.404 345.521 170.72 337.296C175.184 329.072 181.435 322.751 189.472 318.334C197.508 313.765 206.958 311.48 217.823 311.48C228.687 311.48 237.914 313.613 245.504 317.877C253.094 322.142 258.898 328.31 262.917 336.382C267.084 344.302 269.167 353.897 269.167 365.168C269.167 366.386 269.093 367.681 268.944 369.052C268.944 370.423 268.87 371.413 268.721 372.022H178.533V355.116H248.183L240.816 365.625C241.263 364.711 241.709 363.493 242.156 361.97C242.751 360.294 243.048 358.924 243.048 357.857C243.048 352.222 241.932 347.348 239.7 343.236C237.616 339.124 234.64 335.925 230.77 333.641C227.05 331.356 222.659 330.214 217.599 330.214C211.498 330.214 206.289 331.585 201.973 334.326C197.657 337.068 194.383 341.028 192.15 346.206C189.918 351.384 188.727 357.781 188.579 365.396C188.579 373.012 189.695 379.485 191.927 384.815C194.16 389.994 197.434 393.954 201.75 396.695C206.214 399.437 211.572 400.807 217.823 400.807C224.371 400.807 230.101 399.437 235.012 396.695C239.923 393.954 244.016 389.765 247.29 384.13L268.051 392.811C262.693 402.254 255.773 409.336 247.29 414.058C238.807 418.779 228.612 421.14 216.706 421.14Z" fill="#0D1117"/>
<path d="M296.868 384.358C300.142 388.014 303.416 391.212 306.69 393.954C310.113 396.543 313.536 398.523 316.959 399.894C320.382 401.112 323.805 401.721 327.228 401.721C331.544 401.721 334.893 400.731 337.274 398.751C339.804 396.771 341.069 394.03 341.069 390.527C341.069 387.481 340.101 384.892 338.167 382.759C336.232 380.475 333.553 378.571 330.13 377.048C326.707 375.372 322.689 373.697 318.075 372.022C313.462 370.194 308.848 368.062 304.235 365.625C299.77 363.036 296.049 359.685 293.073 355.573C290.245 351.461 288.831 346.282 288.831 340.038C288.831 333.641 290.394 328.31 293.519 324.046C296.793 319.781 301.109 316.659 306.467 314.679C311.974 312.547 317.852 311.48 324.103 311.48C329.758 311.48 335.041 312.318 339.953 313.994C345.013 315.669 349.552 317.877 353.57 320.619C357.588 323.36 361.011 326.483 363.839 329.986L350.445 344.607C347.022 340.495 342.929 337.144 338.167 334.555C333.404 331.966 328.493 330.671 323.433 330.671C320.01 330.671 317.182 331.432 314.95 332.955C312.718 334.479 311.602 336.687 311.602 339.581C311.602 342.018 312.569 344.226 314.504 346.206C316.587 348.034 319.266 349.709 322.54 351.232C325.963 352.755 329.758 354.354 333.925 356.03C339.581 358.314 344.789 360.827 349.552 363.569C354.314 366.31 358.109 369.661 360.937 373.621C363.913 377.581 365.402 382.759 365.402 389.156C365.402 399.056 362.053 407.052 355.356 413.144C348.808 419.084 339.878 422.054 328.568 422.054C321.573 422.054 315.099 420.988 309.146 418.856C303.342 416.571 298.207 413.677 293.743 410.174C289.427 406.519 285.78 402.711 282.804 398.751L296.868 384.358Z" fill="#0D1117"/>
<path d="M1 313.765H27.1188L51.2284 376.362L72.3682 314.679H86.9821L109.717 376.591L133.826 313.765H159.945L115.188 418.856H103.572L79.8028 357.344L57.2743 418.856H45.7568L1 313.765Z" fill="#0D1117"/>
<path d="M386.794 311.48H410.904V398H454.014V418.856H386.794V311.48Z" fill="#0D1117"/>
<g clip-path="url(#clip1_23_171)">
<path d="M255.045 142.388C249.257 142.388 245.639 148.657 248.533 153.672L306.995 254.977C309.895 260.003 317.149 259.99 320.031 254.955L378.021 153.649C380.892 148.634 377.273 142.388 371.497 142.388H353.573C348.318 142.388 344.739 147.682 345.379 152.9C346.064 158.488 345.434 163.781 343.247 168.504C338.403 178.964 327.231 184.01 313.223 184.01C299.215 184.01 288.043 178.964 283.199 168.504C281.012 163.781 280.382 158.488 281.067 152.9C281.707 147.682 278.128 142.388 272.874 142.388H255.045Z" fill="#0095FF"/>
<path d="M295.244 146.676C296.258 143.996 298.931 142.388 301.795 142.388H324.651C327.516 142.388 330.188 143.996 331.202 146.676C333.986 154.034 333.807 159.651 332.1 163.337C330.044 167.778 324.616 171.719 313.223 171.719C301.83 171.719 296.403 167.778 294.346 163.337C292.639 159.651 292.46 154.034 295.244 146.676Z" fill="#0095FF"/>
<path d="M272.236 77.7316C270.804 80.2131 270.86 83.3316 272.672 85.5505C277.651 91.6484 282.606 94.3043 286.652 94.6685C291.524 95.107 297.65 92.3748 303.346 82.5036C309.043 72.6324 308.345 65.9587 305.529 61.9566C303.191 58.6324 298.414 55.6677 290.645 54.4022C287.818 53.9418 285.091 55.4528 283.659 57.9345L272.236 77.7316Z" fill="#05E3FC"/>
<path d="M320.028 17.5463C317.145 12.5114 309.891 12.499 306.991 17.524L298.132 32.8773C295.504 37.4299 298.297 43.1777 303.134 45.2324C308.314 47.4332 312.581 50.6255 315.575 54.8821C322.207 64.3085 320.989 76.5122 313.986 88.6491C306.982 100.786 297.027 107.943 285.551 106.91C280.369 106.444 275.473 104.343 270.977 100.955C266.781 97.7915 260.409 98.2452 257.782 102.798L248.539 118.812C245.645 123.827 249.263 130.096 255.051 130.096H293.423C295.609 130.096 297.63 131.258 298.731 133.148C299.831 135.038 299.845 137.37 298.766 139.273C292.498 150.335 292.105 158.498 294.346 163.337C296.403 167.777 301.83 171.719 313.223 171.719C324.616 171.719 330.044 167.777 332.1 163.337C334.341 158.498 333.949 150.335 327.68 139.273C326.602 137.37 326.615 135.038 327.716 133.148C328.816 131.258 330.837 130.096 333.023 130.096H371.494C377.271 130.096 380.89 123.849 378.019 118.834L320.028 17.5463Z" fill="#05E3FC"/>
<path d="M155.724 255.056C152.83 260.071 145.595 260.071 142.701 255.056L2.01868 11.2842C-0.875584 6.26908 2.74202 0 8.53028 0H289.895C295.683 0 299.301 6.26891 296.407 11.284L277.218 44.5368C276.125 46.4308 276.12 48.7633 277.206 50.6615C278.291 52.5598 280.304 53.7378 282.489 53.7549C295.199 53.854 302.461 57.5961 305.529 61.9567C308.345 65.9588 309.043 72.6325 303.346 82.5037C297.65 92.3749 291.524 95.1071 286.652 94.6686C281.344 94.1908 274.473 89.7693 268.033 78.8067C266.925 76.9213 264.899 75.7669 262.713 75.7754C260.527 75.7839 258.511 76.954 257.418 78.8479L155.724 255.056Z" fill="url(#paint0_linear_23_171)"/>
<path d="M2.01868 11.2842L142.701 255.056C145.595 260.071 152.83 260.071 155.724 255.056L257.418 78.8479C258.511 76.954 260.527 75.7839 262.713 75.7754C264.899 75.7669 266.925 76.9213 268.033 78.8067C274.473 89.7693 281.344 94.1908 286.652 94.6686C291.524 95.1071 297.65 92.3749 303.346 82.5037C309.043 72.6325 308.345 65.9588 305.529 61.9567C302.461 57.5961 295.199 53.854 282.489 53.7549C280.304 53.7378 278.291 52.5598 277.206 50.6615C276.12 48.7633 276.125 46.4308 277.218 44.5368L296.407 11.284C299.301 6.26891 295.683 0 289.895 0L190.843 0.000121754C185.589 0.000121754 182.01 5.29411 182.649 10.5119C183.334 16.1006 182.705 21.3936 180.517 26.1166C175.674 36.5759 164.501 41.6227 150.494 41.6227C136.486 41.6227 125.313 36.5759 120.47 26.1166C118.282 21.3936 117.653 16.1006 118.338 10.5119C118.977 5.2941 115.398 0.000121754 110.144 0.000121754L8.53028 0C2.74202 0 -0.875584 6.26908 2.01868 11.2842Z" fill="url(#paint1_linear_23_171)"/>
<path d="M2.01868 11.2842L142.701 255.056C145.595 260.071 152.83 260.071 155.724 255.056L168.129 233.562L33.339 0H8.53028C2.74202 0 -0.875584 6.26908 2.01868 11.2842Z" fill="#FF7700"/>
<path d="M378.298 58.8966C372.51 58.8962 368.893 52.6273 371.787 47.6124L389.225 17.395C392.117 12.3836 399.346 12.3792 402.244 17.3871L419.733 47.607C422.635 52.6223 419.018 58.8995 413.225 58.8991L378.298 58.8966Z" fill="#04A3FF"/>
<path d="M401.751 112.747C398.819 117.736 391.59 117.681 388.733 112.649L371.572 82.4259C368.725 77.4108 372.346 71.1871 378.111 71.1875L413.039 71.19C418.854 71.1905 422.468 77.5122 419.519 82.5269L401.751 112.747Z" fill="#04A3FF"/>
</g>
</g>
<defs>
<linearGradient id="paint0_linear_23_171" x1="222.844" y1="0.402652" x2="156.61" y2="240.209" gradientUnits="userSpaceOnUse">
<stop stop-color="#FF5242"/>
<stop offset="1" stop-color="#FFDD00"/>
</linearGradient>
<linearGradient id="paint1_linear_23_171" x1="222.844" y1="0.402652" x2="156.61" y2="240.209" gradientUnits="userSpaceOnUse">
<stop stop-color="#FF5242"/>
<stop offset="1" stop-color="#FFDD00"/>
</linearGradient>
<clipPath id="clip0_23_171">
<rect width="454" height="422" fill="white"/>
</clipPath>
<clipPath id="clip1_23_171">
<rect width="420" height="259" fill="white" transform="translate(1)"/>
</clipPath>
</defs>
</svg>
