<?xml version="1.0" encoding="UTF-8" standalone="no"?>
<!-- Created with Inkscape (http://www.inkscape.org/) -->

<svg
   version="1.1"
   id="svg1"
   width="64"
   height="64"
   viewBox="0 0 64 64"
   sodipodi:docname="logo-vectorized.svg"
   xml:space="preserve"
   inkscape:version="1.3.2 (091e20e, 2023-11-25, custom)"
   xmlns:inkscape="http://www.inkscape.org/namespaces/inkscape"
   xmlns:sodipodi="http://sodipodi.sourceforge.net/DTD/sodipodi-0.dtd"
   xmlns:xlink="http://www.w3.org/1999/xlink"
   xmlns="http://www.w3.org/2000/svg"
   xmlns:svg="http://www.w3.org/2000/svg"><defs
     id="defs1"><linearGradient
       id="linearGradient20"
       inkscape:collect="always"><stop
         style="stop-color:#2575ec;stop-opacity:1"
         offset="0"
         id="stop21" /><stop
         style="stop-color:#31b5f3;stop-opacity:1;"
         offset="1"
         id="stop20" /></linearGradient><linearGradient
       id="linearGradient18"
       inkscape:collect="always"><stop
         style="stop-color:#8fd92d;stop-opacity:1;"
         offset="0"
         id="stop18" /><stop
         style="stop-color:#7c8f47;stop-opacity:1;"
         offset="1"
         id="stop19" /></linearGradient><linearGradient
       id="linearGradient15"
       inkscape:collect="always"><stop
         style="stop-color:#fcb200;stop-opacity:1;"
         offset="0"
         id="stop16" /><stop
         style="stop-color:#e43300;stop-opacity:1;"
         offset="1"
         id="stop15" /></linearGradient><rect
       x="18.208758"
       y="24.572415"
       width="34.141803"
       height="21.217111"
       id="rect149" /><rect
       x="0"
       y="0"
       width="63.490233"
       height="15.665237"
       id="rect124" /><style
       id="style1">
      .cls-1, .cls-2, .cls-3, .cls-4, .cls-5 {
        fill-rule: evenodd;
        stroke-linejoin: round;
      }

      .cls-6 {
        fill-rule: evenodd;
      }

      .cls-1 {
        fill: #005a9c;
        stroke: #005a9c;
      }

      .cls-2 {
        fill: #0066b0;
        stroke: #0066b0;
      }

      .cls-3 {
        fill: #0076cc;
        stroke: #0076cc;
      }

      .cls-4 {
        fill: #0086e8;
        stroke: #0086e8;
      }

      .cls-5 {
        fill: #0093ff;
        stroke: #0093ff;
      }
    </style><rect
       x="0"
       y="0"
       width="63.999998"
       height="36.587983"
       id="rect125" /><linearGradient
       inkscape:collect="always"
       xlink:href="#linearGradient15"
       id="linearGradient16"
       x1="24.479834"
       y1="24.572414"
       x2="24.479834"
       y2="59.30687"
       gradientUnits="userSpaceOnUse" /><linearGradient
       inkscape:collect="always"
       xlink:href="#linearGradient18"
       id="linearGradient19"
       x1="44.494144"
       y1="41.949371"
       x2="44.534618"
       y2="59.326988"
       gradientUnits="userSpaceOnUse" /><linearGradient
       inkscape:collect="always"
       xlink:href="#linearGradient20"
       id="linearGradient21"
       x1="54.566963"
       y1="24.571833"
       x2="54.574219"
       y2="33.260281"
       gradientUnits="userSpaceOnUse" /></defs><sodipodi:namedview
     id="namedview1"
     pagecolor="#242424"
     bordercolor="#000000"
     borderopacity="0.25"
     inkscape:showpageshadow="2"
     inkscape:pageopacity="0.0"
     inkscape:pagecheckerboard="0"
     inkscape:deskcolor="#d1d1d1"
     showgrid="false"
     showguides="true"
     inkscape:zoom="6.5078279"
     inkscape:cx="41.949481"
     inkscape:cy="30.809051"
     inkscape:window-width="1680"
     inkscape:window-height="979"
     inkscape:window-x="-8"
     inkscape:window-y="18"
     inkscape:window-maximized="1"
     inkscape:current-layer="svg1"><inkscape:grid
       id="grid3"
       units="px"
       originx="0"
       originy="0"
       spacingx="1"
       spacingy="1"
       empcolor="#0099e5"
       empopacity="0.30196078"
       color="#0099e5"
       opacity="0.14902"
       empspacing="5"
       dotted="false"
       gridanglex="30"
       gridanglez="30"
       visible="false" /></sodipodi:namedview><path
     d="m 17.64359,8.6783635 0.182292,1.2499968 0.266926,-1.1262992 1.874995,-6.6145666 h 1.054685 l 1.829422,6.6145666 0.260417,1.1458304 0.201822,-1.2760384 1.47135,-6.4843586 h 1.256508 l -2.298172,9.4791425 h -1.13932 L 20.651395,4.7591026 20.501656,4.0364481 20.351917,4.7591026 18.327182,11.666637 h -1.13932 L 14.896201,2.1874945 h 1.249997 z M 32.786781,7.2851378 h -4.108062 v 3.3593662 h 4.772123 v 1.022133 h -6.02212 V 2.1874945 h 5.957016 V 3.2161377 H 28.678719 V 6.263005 h 4.108062 z m 5.013008,0.1562496 Q 36.191721,6.979149 35.456045,6.3085778 34.726881,5.6314962 34.726881,4.6419154 q 0,-1.1197889 0.891924,-1.8489537 0.898436,-0.7356752 2.330724,-0.7356752 0.97656,0 1.738277,0.3776032 0.768227,0.3776032 1.184892,1.041664 0.423176,0.6640608 0.423176,1.4518193 h -1.256507 q 0,-0.8593729 -0.546873,-1.3476529 -0.546874,-0.4947904 -1.542965,-0.4947904 -0.924477,0 -1.445309,0.4101552 -0.514322,0.4036448 -0.514322,1.1262993 0,0.5794256 0.48828,0.9830704 0.494791,0.3971344 1.673173,0.7291648 1.184893,0.3320304 1.848954,0.7356752 0.670571,0.3971344 0.989581,0.9309873 0.32552,0.5338528 0.32552,1.2565072 0,1.1523409 -0.898436,1.8489539 -0.898435,0.690102 -2.402337,0.690102 -0.97656,0 -1.822912,-0.371093 Q 35.345369,11.048149 34.88313,10.397109 34.427402,9.7460691 34.427402,8.9192483 h 1.256507 q 0,0.8593728 0.631509,1.3606737 0.638019,0.49479 1.699215,0.49479 0.989581,0 1.516923,-0.403644 0.527342,-0.4036453 0.527342,-1.1002581 0,-0.6966128 -0.48828,-1.074216 -0.48828,-0.3841136 -1.770829,-0.7552065 z m 6.373681,3.2031166 h 4.492176 v 1.022133 H 42.916963 V 2.1874945 h 1.256507 z"
     id="text124"
     style="font-size:13.3333px;font-family:Roboto;-inkscape-font-specification:Roboto;text-align:center;white-space:pre;fill:#ffffff;stroke:#ffffff;stroke-width:0.593013;stroke-linecap:round;stroke-linejoin:round"
     inkscape:label="WESL"
     transform="matrix(1.6863035,0,0,1.6863035,-21.006647,-0.84630524)"
     aria-label="WESL" /><g
     inkscape:groupmode="layer"
     inkscape:label="Image"
     id="g1"><path
       style="fill:#ffffff;fill-opacity:1;stroke:#ffffff;stroke-width:3;stroke-linejoin:round;stroke-dasharray:none;stroke-opacity:1;stroke-linecap:round"
       d="M 4.4021955,24.572415 24.468602,59.326321 34.501438,41.949371 44.534617,59.32699 59.597805,33.260643 l -5.030842,-8.68881 -5.01633,8.688082 -5.017578,-8.6875 z"
       id="path21" /><path
       style="fill:url(#linearGradient19);stroke:#ffffff;stroke-linejoin:round;stroke-opacity:1;fill-opacity:1;stroke-width:1.5;stroke-dasharray:none"
       d="M 34.501438,41.949371 44.534617,59.32699 54.486848,41.949371 Z"
       id="path13"
       sodipodi:nodetypes="cccc" /><path
       id="path16"
       style="fill:#fad449;stroke:#ffffff;stroke-linejoin:round;stroke-opacity:1;fill-opacity:1;stroke-width:1.5;stroke-dasharray:none"
       d="m 34.501438,41.949371 7.575136,-10e-7 c -1.636207,2.885737 -0.683803,5.079612 2.417569,5.079612 3.101372,0 4.053776,-2.193875 2.417569,-5.079612 l 7.575136,10e-7 -9.953793,-17.376956 z"
       sodipodi:nodetypes="ccccccc" /><path
       id="path12"
       style="fill:url(#linearGradient16);stroke:#ffffff;stroke-linejoin:round;stroke-opacity:1;fill-opacity:1;stroke-width:1.5;stroke-dasharray:none"
       d="m 43.937728,35.766156 c 1.550686,-2.685867 0.126936,-4.607612 -3.190288,-4.633482 l 3.787568,-6.560259 H 4.4021955 L 24.468602,59.326321 38.32987,35.320027 c 1.681018,2.859865 4.057171,3.131997 5.607858,0.446129"
       sodipodi:nodetypes="ccccccc" /><path
       style="fill:url(#linearGradient21);fill-opacity:1;stroke:#ffffff;stroke-linejoin:round;stroke-opacity:1;stroke-width:1.5;stroke-dasharray:none"
       d="m 49.550633,33.259915 5.01633,-8.688082 5.030842,8.68881 z"
       id="path18" /><path
       style="fill:#8ed8f5;fill-opacity:1;stroke:#ffffff;stroke-linejoin:round;stroke-opacity:1;stroke-width:1.5;stroke-dasharray:none"
       d="m 49.550633,33.259915 10.047172,7.28e-4 -5.110957,8.688728 -4.936215,-8.689456"
       id="path17" /></g></svg>
