<?xml version="1.0" encoding="UTF-8" standalone="no"?>
<!-- Created with Inkscape (http://www.inkscape.org/) -->

<svg
   version="1.1"
   id="svg1"
   width="64"
   height="64"
   viewBox="0 0 64 64"
   sodipodi:docname="logo-discord.svg"
   xml:space="preserve"
   inkscape:version="1.3.2 (091e20e, 2023-11-25, custom)"
   xmlns:inkscape="http://www.inkscape.org/namespaces/inkscape"
   xmlns:sodipodi="http://sodipodi.sourceforge.net/DTD/sodipodi-0.dtd"
   xmlns:xlink="http://www.w3.org/1999/xlink"
   xmlns="http://www.w3.org/2000/svg"
   xmlns:svg="http://www.w3.org/2000/svg"><defs
     id="defs1"><linearGradient
       id="linearGradient20"
       inkscape:collect="always"><stop
         style="stop-color:#2575ec;stop-opacity:1"
         offset="0"
         id="stop21" /><stop
         style="stop-color:#31b5f3;stop-opacity:1;"
         offset="1"
         id="stop20" /></linearGradient><linearGradient
       id="linearGradient18"
       inkscape:collect="always"><stop
         style="stop-color:#8fd92d;stop-opacity:1;"
         offset="0"
         id="stop18" /><stop
         style="stop-color:#7c8f47;stop-opacity:1;"
         offset="1"
         id="stop19" /></linearGradient><linearGradient
       id="linearGradient15"
       inkscape:collect="always"><stop
         style="stop-color:#fcb200;stop-opacity:1;"
         offset="0"
         id="stop16" /><stop
         style="stop-color:#e43300;stop-opacity:1;"
         offset="1"
         id="stop15" /></linearGradient><rect
       x="18.208758"
       y="24.572415"
       width="34.141803"
       height="21.217111"
       id="rect149" /><rect
       x="0"
       y="0"
       width="63.490233"
       height="15.665237"
       id="rect124" /><style
       id="style1">
      .cls-1, .cls-2, .cls-3, .cls-4, .cls-5 {
        fill-rule: evenodd;
        stroke-linejoin: round;
      }

      .cls-6 {
        fill-rule: evenodd;
      }

      .cls-1 {
        fill: #005a9c;
        stroke: #005a9c;
      }

      .cls-2 {
        fill: #0066b0;
        stroke: #0066b0;
      }

      .cls-3 {
        fill: #0076cc;
        stroke: #0076cc;
      }

      .cls-4 {
        fill: #0086e8;
        stroke: #0086e8;
      }

      .cls-5 {
        fill: #0093ff;
        stroke: #0093ff;
      }
    </style><rect
       x="0"
       y="0"
       width="63.999998"
       height="36.587983"
       id="rect125" /><linearGradient
       inkscape:collect="always"
       xlink:href="#linearGradient15"
       id="linearGradient16"
       x1="24.479834"
       y1="24.572414"
       x2="24.479834"
       y2="59.30687"
       gradientUnits="userSpaceOnUse"
       gradientTransform="matrix(0.81153565,0,0,0.81153565,6.0742727,5.9318914)" /><linearGradient
       inkscape:collect="always"
       xlink:href="#linearGradient18"
       id="linearGradient19"
       x1="44.494144"
       y1="41.949371"
       x2="44.534618"
       y2="59.326988"
       gradientUnits="userSpaceOnUse"
       gradientTransform="matrix(0.81153565,0,0,0.81153565,6.0742727,5.9318914)" /><linearGradient
       inkscape:collect="always"
       xlink:href="#linearGradient20"
       id="linearGradient21"
       x1="54.566963"
       y1="24.571833"
       x2="54.574219"
       y2="33.260281"
       gradientUnits="userSpaceOnUse"
       gradientTransform="matrix(0.81153565,0,0,0.81153565,6.0742727,5.9318914)" /></defs><sodipodi:namedview
     id="namedview1"
     pagecolor="#242424"
     bordercolor="#000000"
     borderopacity="0.25"
     inkscape:showpageshadow="2"
     inkscape:pageopacity="0.0"
     inkscape:pagecheckerboard="0"
     inkscape:deskcolor="#d1d1d1"
     showgrid="false"
     showguides="true"
     inkscape:zoom="6.5078279"
     inkscape:cx="37.032325"
     inkscape:cy="23.125996"
     inkscape:window-width="1920"
     inkscape:window-height="1009"
     inkscape:window-x="1672"
     inkscape:window-y="-8"
     inkscape:window-maximized="1"
     inkscape:current-layer="svg1"><inkscape:grid
       id="grid3"
       units="px"
       originx="0"
       originy="0"
       spacingx="1"
       spacingy="1"
       empcolor="#0099e5"
       empopacity="0.30196078"
       color="#0099e5"
       opacity="0.14902"
       empspacing="5"
       dotted="false"
       gridanglex="30"
       gridanglez="30"
       visible="false" /></sodipodi:namedview><g
     inkscape:groupmode="layer"
     inkscape:label="Image"
     id="g1"><rect
       style="fill:#0d1117;stroke-width:10.0006;stroke-linecap:round;stroke-linejoin:round;fill-opacity:1"
       id="rect1"
       width="64"
       height="64"
       x="0"
       y="0"
       ry="5.48668" /><path
       style="fill:#ffffff;fill-opacity:1;stroke:#ffffff;stroke-width:2.43461;stroke-linecap:round;stroke-linejoin:round;stroke-dasharray:none;stroke-opacity:1"
       d="M 9.6468113,25.873282 25.931416,54.077316 34.07342,39.975301 42.215702,54.077859 54.440016,32.924089 50.357308,25.87281 46.286378,32.923498 42.214434,25.873282 Z"
       id="path21" /><path
       style="fill:url(#linearGradient19);fill-opacity:1;stroke:#ffffff;stroke-width:1.2173;stroke-linejoin:round;stroke-dasharray:none;stroke-opacity:1"
       d="m 34.07342,39.975301 8.142282,14.102558 8.07659,-14.102558 z"
       id="path13"
       sodipodi:nodetypes="cccc" /><path
       id="path16"
       style="fill:#fad449;fill-opacity:1;stroke:#ffffff;stroke-width:1.2173;stroke-linejoin:round;stroke-dasharray:none;stroke-opacity:1"
       d="m 34.07342,39.975301 h 6.147492 c -1.32784,2.341878 -0.55493,4.122286 1.961944,4.122286 2.516874,0 3.289784,-1.780408 1.961943,-4.122286 h 6.147493 L 42.214434,25.873282 Z"
       sodipodi:nodetypes="ccccccc" /><path
       id="path12"
       style="fill:url(#linearGradient16);fill-opacity:1;stroke:#ffffff;stroke-width:1.2173;stroke-linejoin:round;stroke-dasharray:none;stroke-opacity:1"
       d="m 41.731305,34.957402 c 1.258437,-2.179677 0.103013,-3.739241 -2.589032,-3.760236 l 3.073746,-5.323884 H 9.6468113 L 25.931416,54.077316 37.180329,34.595352 c 1.364206,2.320883 3.292539,2.541728 4.550976,0.36205"
       sodipodi:nodetypes="ccccccc" /><path
       style="fill:url(#linearGradient21);fill-opacity:1;stroke:#ffffff;stroke-width:1.2173;stroke-linejoin:round;stroke-dasharray:none;stroke-opacity:1"
       d="m 46.286378,32.923498 4.07093,-7.050688 4.082708,7.051279 z"
       id="path18" /><path
       style="fill:#8ed8f5;fill-opacity:1;stroke:#ffffff;stroke-width:1.2173;stroke-linejoin:round;stroke-dasharray:none;stroke-opacity:1"
       d="m 46.286378,32.923498 8.153638,5.91e-4 -4.147724,7.051212 -4.005914,-7.051803"
       id="path17" /></g><path
     d="m 13.171802,17.121385 0.249465,1.710615 0.365287,-1.541335 2.565922,-9.0520043 h 1.443332 l 2.503556,9.0520043 0.356379,1.568063 0.276193,-1.746252 2.013535,-8.8738153 h 1.719526 L 21.519959,21.210824 h -1.559154 l -2.672836,-9.452929 -0.204917,-0.98895 -0.204917,0.98895 -2.770841,9.452929 H 12.54814 L 9.4120125,8.2386607 h 1.7106155 z m 20.723387,-1.906623 h -5.621864 v 4.597277 h 6.530628 v 1.398785 H 26.56271 V 8.2386607 h 8.152149 v 1.4076935 h -6.441534 v 4.1696238 h 5.621864 z m 6.860278,0.213827 q -2.200633,-0.632571 -3.207403,-1.550245 -0.997857,-0.926583 -0.997857,-2.28082 0,-1.532426 1.220594,-2.5302842 1.229505,-1.0067681 3.189585,-1.0067681 1.336418,0 2.378824,0.5167482 1.051315,0.5167482 1.621519,1.4255121 0.579115,0.908764 0.579115,1.986808 H 43.82032 q 0,-1.176048 -0.748394,-1.844256 -0.748394,-0.6771189 -2.11154,-0.6771189 -1.265143,0 -1.977899,0.5612959 -0.703847,0.552386 -0.703847,1.541335 0,0.792941 0.668209,1.345327 0.677119,0.543477 2.289729,0.997859 1.621521,0.454382 2.530285,1.006768 0.917674,0.543477 1.354237,1.274052 0.445473,0.730575 0.445473,1.719524 0,1.576974 -1.229505,2.530285 -1.229505,0.944402 -3.287588,0.944402 -1.336418,0 -2.494646,-0.507839 -1.158229,-0.516748 -1.790801,-1.407694 -0.623662,-0.890945 -0.623662,-2.022445 h 1.719524 q 0,1.176048 0.864217,1.862076 0.873127,0.677117 2.325368,0.677117 1.354237,0 2.075903,-0.552385 0.721665,-0.552386 0.721665,-1.505698 0,-0.953311 -0.668209,-1.470059 -0.668209,-0.525658 -2.423372,-1.033497 z m 8.722353,4.38345 h 6.147523 v 1.398785 H 47.758296 V 8.2386607 h 1.719524 z"
     id="text124"
     style="font-size:13.3333px;font-family:Roboto;-inkscape-font-specification:Roboto;text-align:center;white-space:pre;fill:#ffffff;stroke:#ffffff;stroke-width:0.811536;stroke-linecap:round;stroke-linejoin:round"
     inkscape:label="WESL"
     aria-label="WESL" /></svg>
